<?xml version="1.0" encoding="utf-8"?>
<!-- Generator: Adobe Illustrator 22.0.1, SVG Export Plug-In . SVG Version: 6.00 Build 0)  -->
<svg version="1.1" id="Layer_1" xmlns="http://www.w3.org/2000/svg" xmlns:xlink="http://www.w3.org/1999/xlink" x="0px" y="0px"
	 viewBox="0 0 1280 400" style="enable-background:new 0 0 1280 400;" xml:space="preserve">
<style type="text/css">
	.st0{fill:#013144;}
	.st1{fill:#0093DD;}
	.st2{fill:#D7F7FF;}
	.st3{fill:#FFFFFF;}
	.st4{fill:#3FC7FC;}
</style>
<g>
	<g>
		<path class="st3" d="M635.8,115.9c0-18.6,11.2-28.3,28.3-28.3c17,0,28.3,9.7,28.3,28.3v128.5l62.7-69.7
			c5.8-6.2,13.2-10.8,21.7-10.8c12.8,0,26.7,11.2,26.7,25.5c0,10.1-3.5,13.2-8.5,18.6l-41.8,43.7l58.8,79c1.9,2.7,5.8,8.9,5.8,18.2
			c0,14.3-11.6,27.5-26.7,27.5c-13.9,0-21.3-7-25.5-13.2l-53.4-75.5l-19.7,17.4v43c0,18.6-11.2,28.3-28.3,28.3
			c-17,0-28.3-9.7-28.3-28.3V115.9z"/>
		<path class="st3" d="M859.6,86.1c16.3,0,29.4,13.2,29.4,29.4c0,16.3-13.2,29.4-29.4,29.4s-29.4-13.2-29.4-29.4
			C830.1,99.3,843.3,86.1,859.6,86.1z M831.3,192.2c0-15.1,6.2-28.3,28.3-28.3c22.1,0,28.3,13.2,28.3,28.3v156
			c0,15.1-6.2,28.3-28.3,28.3c-22.1,0-28.3-13.2-28.3-28.3V192.2z"/>
		<path class="st3" d="M1100.3,316.8c0,23.6,5.8,29,5.8,37.9c0,12.8-12,21.7-25.5,21.7c-24.4,0-32.5-15.5-33.3-32.9
			c-22.1,24.4-47.6,32.9-77.4,32.9c-32.1,0-63.9-22.1-63.9-57.7c0-46.8,35.6-60,79-65l34.5-3.9c13.5-1.5,24.4-4.6,24.4-20.9
			s-16.6-23.2-35.6-23.2c-41.8,0-43,31-65.4,31c-14.3,0-24-10.1-24-21.7c0-22.5,31.7-51.1,89.8-51.1c54.2,0,91.7,17.4,91.7,58.1
			V316.8z M1043.8,276.2c-6.2,5.8-17.8,7.7-24.4,8.9l-20.5,3.1c-23.6,3.5-36.4,10.8-36.4,27.9c0,12.8,12,23.2,31.4,23.2
			c31,0,49.9-20.1,49.9-41V276.2z"/>
		<path class="st3" d="M1129,115.9c0-18.6,11.2-28.3,28.3-28.3c17,0,28.3,9.7,28.3,28.3v232.3c0,18.6-11.2,28.3-28.3,28.3
			c-17,0-28.3-9.7-28.3-28.3V115.9z"/>
		<path class="st3" d="M1241.6,86.1c16.3,0,29.4,13.2,29.4,29.4c0,16.3-13.2,29.4-29.4,29.4s-29.4-13.2-29.4-29.4
			C1212.2,99.3,1225.4,86.1,1241.6,86.1z M1213.4,192.2c0-15.1,6.2-28.3,28.3-28.3c22.1,0,28.3,13.2,28.3,28.3v156
			c0,15.1-6.2,28.3-28.3,28.3c-22.1,0-28.3-13.2-28.3-28.3V192.2z"/>
	</g>
	<path class="st3" d="M349.9,8.3c-107.3,0-194.2,87-194.2,194.2c0,107.3,87,194.2,194.2,194.2s194.2-87,194.2-194.2
		C544.1,95.3,457.1,8.3,349.9,8.3z M349.9,367.2c-90.9,0-164.7-73.7-164.7-164.7c0-90.9,73.7-164.7,164.7-164.7
		s164.7,73.7,164.7,164.7C514.5,293.5,440.8,367.2,349.9,367.2z"/>
	<path class="st3" d="M144.1,202.5c0-47.9,16.4-92,43.9-127c-13.7-4.8-28.5-7.5-43.9-7.5C70.6,68.1,11,128.3,11,202.5
		C11,276.8,70.6,337,144.2,337c15.3,0,30.1-2.7,43.8-7.5C159.5,293.4,144.1,249.2,144.1,202.5z"/>
	<path class="st3" d="M292.4,60.7c-56,22.8-95.6,77.8-95.6,141.9c0,64.1,39.6,119.1,95.6,141.9c36.2-36.4,58.6-86.5,58.6-141.9
		S328.6,97,292.4,60.7z"/>
</g>
</svg>
